<mxfile host="app.diagrams.net" agent="Mozilla/5.0 (Windows NT 10.0; Win64; x64) AppleWebKit/537.36 (KHTML, like Gecko) Chrome/126.0.0.0 Safari/537.36 OPR/112.0.0.0" version="24.7.6">
  <diagram name="Page-1" id="SU2soaq00JRKDtY6deup">
    <mxGraphModel dx="2280" dy="1416" grid="1" gridSize="10" guides="1" tooltips="1" connect="1" arrows="1" fold="1" page="1" pageScale="1" pageWidth="850" pageHeight="1100" math="0" shadow="0">
      <root>
        <mxCell id="0" />
        <mxCell id="1" parent="0" />
        <mxCell id="8rJlbXOK08ESjmnHMBqd-21" value="" style="edgeStyle=orthogonalEdgeStyle;rounded=0;orthogonalLoop=1;jettySize=auto;html=1;" parent="1" source="8rJlbXOK08ESjmnHMBqd-4" target="8rJlbXOK08ESjmnHMBqd-6" edge="1">
          <mxGeometry relative="1" as="geometry" />
        </mxCell>
        <mxCell id="8rJlbXOK08ESjmnHMBqd-4" value="" style="ellipse;whiteSpace=wrap;html=1;aspect=fixed;" parent="1" vertex="1">
          <mxGeometry x="380" y="13" width="50" height="50" as="geometry" />
        </mxCell>
        <mxCell id="8rJlbXOK08ESjmnHMBqd-23" value="" style="edgeStyle=orthogonalEdgeStyle;rounded=0;orthogonalLoop=1;jettySize=auto;html=1;" parent="1" source="8rJlbXOK08ESjmnHMBqd-6" target="8rJlbXOK08ESjmnHMBqd-7" edge="1">
          <mxGeometry relative="1" as="geometry" />
        </mxCell>
        <mxCell id="8rJlbXOK08ESjmnHMBqd-6" value="&lt;font style=&quot;font-size: 23px;&quot;&gt;Login&lt;/font&gt;" style="rounded=1;whiteSpace=wrap;html=1;" parent="1" vertex="1">
          <mxGeometry x="345" y="93" width="120" height="60" as="geometry" />
        </mxCell>
        <mxCell id="8rJlbXOK08ESjmnHMBqd-25" value="" style="edgeStyle=orthogonalEdgeStyle;rounded=0;orthogonalLoop=1;jettySize=auto;html=1;" parent="1" source="8rJlbXOK08ESjmnHMBqd-7" edge="1">
          <mxGeometry relative="1" as="geometry">
            <mxPoint x="404.9999999999998" y="323" as="targetPoint" />
          </mxGeometry>
        </mxCell>
        <mxCell id="8rJlbXOK08ESjmnHMBqd-7" value="&lt;font style=&quot;font-size: 23px;&quot;&gt;Bank Balance&lt;/font&gt;" style="rounded=1;whiteSpace=wrap;html=1;" parent="1" vertex="1">
          <mxGeometry x="285" y="203" width="240" height="60" as="geometry" />
        </mxCell>
        <mxCell id="8rJlbXOK08ESjmnHMBqd-26" value="" style="edgeStyle=orthogonalEdgeStyle;rounded=0;orthogonalLoop=1;jettySize=auto;html=1;" parent="1" target="8rJlbXOK08ESjmnHMBqd-11" edge="1">
          <mxGeometry relative="1" as="geometry">
            <mxPoint x="404.9999999999998" y="373" as="sourcePoint" />
          </mxGeometry>
        </mxCell>
        <mxCell id="8rJlbXOK08ESjmnHMBqd-42" style="edgeStyle=orthogonalEdgeStyle;rounded=0;orthogonalLoop=1;jettySize=auto;html=1;" parent="1" source="8rJlbXOK08ESjmnHMBqd-10" edge="1">
          <mxGeometry relative="1" as="geometry">
            <mxPoint x="595" y="573" as="targetPoint" />
          </mxGeometry>
        </mxCell>
        <mxCell id="8rJlbXOK08ESjmnHMBqd-10" value="&lt;font style=&quot;font-size: 23px;&quot;&gt;Want to Transfer Funds?&lt;/font&gt;" style="shape=hexagon;perimeter=hexagonPerimeter2;whiteSpace=wrap;html=1;fixedSize=1;" parent="1" vertex="1">
          <mxGeometry x="245" y="323" width="320" height="50" as="geometry" />
        </mxCell>
        <mxCell id="8rJlbXOK08ESjmnHMBqd-27" value="" style="edgeStyle=orthogonalEdgeStyle;rounded=0;orthogonalLoop=1;jettySize=auto;html=1;" parent="1" source="8rJlbXOK08ESjmnHMBqd-11" target="8rJlbXOK08ESjmnHMBqd-12" edge="1">
          <mxGeometry relative="1" as="geometry" />
        </mxCell>
        <mxCell id="8rJlbXOK08ESjmnHMBqd-11" value="&lt;font style=&quot;font-size: 23px;&quot;&gt;Transfer Funds&lt;/font&gt;" style="rounded=1;whiteSpace=wrap;html=1;" parent="1" vertex="1">
          <mxGeometry x="305" y="433" width="200" height="60" as="geometry" />
        </mxCell>
        <mxCell id="8rJlbXOK08ESjmnHMBqd-49" value="" style="edgeStyle=orthogonalEdgeStyle;rounded=0;orthogonalLoop=1;jettySize=auto;html=1;" parent="1" source="8rJlbXOK08ESjmnHMBqd-12" target="8rJlbXOK08ESjmnHMBqd-13" edge="1">
          <mxGeometry relative="1" as="geometry" />
        </mxCell>
        <mxCell id="8rJlbXOK08ESjmnHMBqd-12" value="" style="rhombus;whiteSpace=wrap;html=1;" parent="1" vertex="1">
          <mxGeometry x="375" y="543" width="60" height="60" as="geometry" />
        </mxCell>
        <mxCell id="8rJlbXOK08ESjmnHMBqd-50" value="" style="edgeStyle=orthogonalEdgeStyle;rounded=0;orthogonalLoop=1;jettySize=auto;html=1;" parent="1" source="8rJlbXOK08ESjmnHMBqd-13" target="8rJlbXOK08ESjmnHMBqd-14" edge="1">
          <mxGeometry relative="1" as="geometry" />
        </mxCell>
        <mxCell id="8rJlbXOK08ESjmnHMBqd-55" style="edgeStyle=orthogonalEdgeStyle;rounded=0;orthogonalLoop=1;jettySize=auto;html=1;" parent="1" source="8rJlbXOK08ESjmnHMBqd-13" edge="1">
          <mxGeometry relative="1" as="geometry">
            <mxPoint x="605" y="873" as="targetPoint" />
          </mxGeometry>
        </mxCell>
        <mxCell id="8rJlbXOK08ESjmnHMBqd-13" value="&lt;font style=&quot;font-size: 23px;&quot;&gt;Want to Pay Bills?&lt;/font&gt;" style="shape=hexagon;perimeter=hexagonPerimeter2;whiteSpace=wrap;html=1;fixedSize=1;" parent="1" vertex="1">
          <mxGeometry x="245" y="653" width="320" height="50" as="geometry" />
        </mxCell>
        <mxCell id="8rJlbXOK08ESjmnHMBqd-52" value="" style="edgeStyle=orthogonalEdgeStyle;rounded=0;orthogonalLoop=1;jettySize=auto;html=1;" parent="1" source="8rJlbXOK08ESjmnHMBqd-14" target="8rJlbXOK08ESjmnHMBqd-16" edge="1">
          <mxGeometry relative="1" as="geometry" />
        </mxCell>
        <mxCell id="8rJlbXOK08ESjmnHMBqd-14" value="&lt;font style=&quot;font-size: 23px;&quot;&gt;Pay Bills&lt;/font&gt;" style="rounded=1;whiteSpace=wrap;html=1;" parent="1" vertex="1">
          <mxGeometry x="345" y="753" width="120" height="60" as="geometry" />
        </mxCell>
        <mxCell id="8rJlbXOK08ESjmnHMBqd-54" value="" style="edgeStyle=orthogonalEdgeStyle;rounded=0;orthogonalLoop=1;jettySize=auto;html=1;" parent="1" source="8rJlbXOK08ESjmnHMBqd-15" target="8rJlbXOK08ESjmnHMBqd-18" edge="1">
          <mxGeometry relative="1" as="geometry" />
        </mxCell>
        <mxCell id="8rJlbXOK08ESjmnHMBqd-15" value="&lt;font style=&quot;font-size: 23px;&quot;&gt;Logout&lt;/font&gt;" style="rounded=1;whiteSpace=wrap;html=1;" parent="1" vertex="1">
          <mxGeometry x="345" y="933" width="120" height="60" as="geometry" />
        </mxCell>
        <mxCell id="8rJlbXOK08ESjmnHMBqd-53" value="" style="edgeStyle=orthogonalEdgeStyle;rounded=0;orthogonalLoop=1;jettySize=auto;html=1;" parent="1" source="8rJlbXOK08ESjmnHMBqd-16" target="8rJlbXOK08ESjmnHMBqd-15" edge="1">
          <mxGeometry relative="1" as="geometry" />
        </mxCell>
        <mxCell id="8rJlbXOK08ESjmnHMBqd-16" value="" style="rhombus;whiteSpace=wrap;html=1;" parent="1" vertex="1">
          <mxGeometry x="380" y="843" width="50" height="50" as="geometry" />
        </mxCell>
        <mxCell id="8rJlbXOK08ESjmnHMBqd-18" value="" style="shape=image;html=1;verticalAlign=top;verticalLabelPosition=bottom;labelBackgroundColor=#ffffff;imageAspect=0;aspect=fixed;image=https://cdn2.iconfinder.com/data/icons/freecns-cumulus/16/519721-229_DoubleCircle-128.png;resizable=1;rotatable=1;" parent="1" vertex="1">
          <mxGeometry x="376" y="1029" width="58" height="58" as="geometry" />
        </mxCell>
        <mxCell id="8rJlbXOK08ESjmnHMBqd-46" value="" style="endArrow=classic;html=1;rounded=0;" parent="1" target="8rJlbXOK08ESjmnHMBqd-12" edge="1">
          <mxGeometry width="50" height="50" relative="1" as="geometry">
            <mxPoint x="595" y="573" as="sourcePoint" />
            <mxPoint x="545" y="525" as="targetPoint" />
          </mxGeometry>
        </mxCell>
        <mxCell id="8rJlbXOK08ESjmnHMBqd-47" value="&lt;font style=&quot;font-size: 18px;&quot;&gt;yes&lt;/font&gt;" style="text;html=1;align=center;verticalAlign=middle;resizable=0;points=[];autosize=1;strokeColor=none;fillColor=none;" parent="1" vertex="1">
          <mxGeometry x="400" y="373" width="50" height="40" as="geometry" />
        </mxCell>
        <mxCell id="8rJlbXOK08ESjmnHMBqd-51" value="&lt;font style=&quot;font-size: 16px;&quot;&gt;yes&lt;/font&gt;" style="text;html=1;align=center;verticalAlign=middle;resizable=0;points=[];autosize=1;strokeColor=none;fillColor=none;" parent="1" vertex="1">
          <mxGeometry x="400" y="713" width="50" height="30" as="geometry" />
        </mxCell>
        <mxCell id="8rJlbXOK08ESjmnHMBqd-56" value="" style="endArrow=classic;html=1;rounded=0;entryX=1;entryY=0.5;entryDx=0;entryDy=0;" parent="1" target="8rJlbXOK08ESjmnHMBqd-16" edge="1">
          <mxGeometry width="50" height="50" relative="1" as="geometry">
            <mxPoint x="605" y="868" as="sourcePoint" />
            <mxPoint x="525" y="833" as="targetPoint" />
          </mxGeometry>
        </mxCell>
      </root>
    </mxGraphModel>
  </diagram>
</mxfile>
